<?xml version="1.0" encoding="UTF-8" standalone="no"?>
<!DOCTYPE svg PUBLIC "-//W3C//DTD SVG 1.1//EN" "http://www.w3.org/Graphics/SVG/1.1/DTD/svg11.dtd">
<svg width="100%" height="100%" viewBox="0 0 1080 1080" version="1.1" xmlns="http://www.w3.org/2000/svg" xmlns:xlink="http://www.w3.org/1999/xlink" xml:space="preserve" xmlns:serif="http://www.serif.com/" style="fill-rule:evenodd;clip-rule:evenodd;stroke-linejoin:round;stroke-miterlimit:2;">
    <g transform="matrix(11.0204,0,0,11.0204,-1173.67,-562.041)">
        <path d="M107,100C107,72.938 128.715,51 155.5,51C182.286,51 204,72.938 204,100C204,127.061 182.286,149 155.5,149C128.715,149 107,127.061 107,100Z" style="fill:rgb(44,160,28);"/>
    </g>
    <g transform="matrix(11.0204,0,0,11.0204,-1173.67,-562.041)">
        <path d="M171.887,81.018L169.157,81.018L169.157,88.068L171.887,88.068C178.511,88.068 183.901,93.422 183.901,100.002C183.901,106.581 178.511,111.934 171.887,111.934L165.326,111.934L165.326,75.051C165.326,71.157 162.147,68 158.227,68L158.227,118.986L171.887,118.986C182.443,118.986 191,110.486 191,100.002C191,89.517 182.443,81.018 171.887,81.018ZM120,99.998C120,110.483 128.557,118.982 139.113,118.982L141.843,118.982L141.843,111.931L139.113,111.931C132.489,111.931 127.099,106.579 127.099,99.998C127.099,93.419 132.489,88.066 139.113,88.066L145.674,88.066L145.674,124.949C145.674,128.843 148.853,132 152.773,132L152.773,81.014L139.113,81.014C128.557,81.014 120,89.514 120,99.998Z" style="fill:white;"/>
    </g>
</svg>
